<svg xmlns="http://www.w3.org/2000/svg" width="212" height="89.5" viewBox="0 0 212 89.5">
  <g id="Group_10" data-name="Group 10" transform="translate(-140 -15)">
    <g id="icon-1719742" transform="translate(87 -44.96)">
      <rect id="Rectangle_12" data-name="Rectangle 12" width="2.631" height="5.262" transform="translate(101.012 117.864)"/>
      <rect id="Rectangle_13" data-name="Rectangle 13" width="2.631" height="5.262" transform="translate(101.012 86.294)"/>
      <rect id="Rectangle_14" data-name="Rectangle 14" width="5.262" height="2.631" transform="translate(83.912 103.395)"/>
      <rect id="Rectangle_15" data-name="Rectangle 15" width="5.262" height="2.631" transform="translate(115.482 103.395)"/>
      <rect id="Rectangle_16" data-name="Rectangle 16" width="5.264" height="2.631" transform="translate(112.552 113.08) rotate(45)"/>
      <rect id="Rectangle_17" data-name="Rectangle 17" width="5.264" height="2.631" transform="translate(90.23 90.758) rotate(45)"/>
      <rect id="Rectangle_18" data-name="Rectangle 18" width="2.631" height="5.264" transform="translate(92.097 113.079) rotate(45)"/>
      <rect id="Rectangle_19" data-name="Rectangle 19" width="2.631" height="5.264" transform="translate(114.418 90.758) rotate(45)"/>
      <path id="Path_89" data-name="Path 89" d="M127.251,149.46c-4.762,0-10.144-1.822-15.774-5.412-8.793-5.607-17.224-14.911-23.74-26.2S77.38,94.612,76.92,84.194c-.473-10.726,2.693-18.61,8.914-22.2s14.633-2.391,23.685,3.381c8.793,5.607,17.224,14.911,23.74,26.2s10.358,23.239,10.817,33.657c.473,10.726-2.693,18.61-8.914,22.2A15.6,15.6,0,0,1,127.251,149.46ZM93.76,62.591a13.033,13.033,0,0,0-6.611,1.678c-5.33,3.077-8.029,10.112-7.6,19.808.441,10,4.159,21.531,10.468,32.458s14.432,19.909,22.875,25.294c8.184,5.219,15.625,6.4,20.955,3.321s8.029-10.111,7.6-19.808c-.441-10-4.159-21.531-10.468-32.458S116.547,72.975,108.1,67.591C102.906,64.276,98.008,62.591,93.76,62.591Z" transform="translate(-8.172)"/>
      <path id="Path_90" data-name="Path 90" d="M93.75,149.46a15.6,15.6,0,0,1-7.91-2.031c-6.221-3.592-9.387-11.477-8.914-22.2.46-10.419,4.3-22.372,10.817-33.657s14.947-20.589,23.74-26.2c9.051-5.771,17.464-6.974,23.685-3.381s9.387,11.477,8.914,22.2c-.46,10.419-4.3,22.372-10.817,33.657s-14.947,20.589-23.74,26.2C103.895,147.638,98.512,149.46,93.75,149.46Zm33.492-86.869c-4.248,0-9.146,1.685-14.345,5-8.443,5.385-16.566,14.367-22.875,25.294s-10.027,22.454-10.468,32.458c-.427,9.7,2.272,16.731,7.6,19.808s12.771,1.9,20.955-3.321c8.443-5.385,16.566-14.367,22.875-25.294s10.027-22.454,10.468-32.458c.427-9.7-2.272-16.731-7.6-19.808a13.035,13.035,0,0,0-6.61-1.678Z" transform="translate(-8.174 0)"/>
      <path id="Path_91" data-name="Path 91" d="M102.328,140.6c-13.032,0-25.3-2.65-34.556-7.461C58.246,128.189,53,121.505,53,114.322S58.246,100.454,67.771,95.5C77.023,90.69,89.3,88.04,102.328,88.04s25.3,2.65,34.556,7.461c9.525,4.953,14.771,11.637,14.771,18.821s-5.246,13.868-14.771,18.821C127.632,137.954,115.359,140.6,102.328,140.6Zm0-49.933c-25.748,0-46.7,10.609-46.7,23.651s20.948,23.651,46.7,23.651,46.7-10.609,46.7-23.651-20.948-23.651-46.7-23.651Z" transform="translate(0 -9.612)"/>
      <circle id="Ellipse_11" data-name="Ellipse 11" cx="9.866" cy="9.866" r="9.866" transform="translate(92.462 94.845)" fill="#ff8c1a"/>
      <path id="Path_92" data-name="Path 92" d="M122.181,133.362a11.181,11.181,0,1,1,11.181-11.181A11.193,11.193,0,0,1,122.181,133.362Zm0-19.731a8.55,8.55,0,1,0,8.55,8.55A8.56,8.56,0,0,0,122.181,113.631Z" transform="translate(-19.853 -17.471)"/>
    </g>
    <text id="Community" transform="translate(254 43)" fill="#836c40" font-size="21" font-family="Nunito-Bold, Nunito" letter-spacing="0.015em" font-weight="700"><tspan x="0" y="0">C</tspan><tspan y="0" font-size="18" font-family="Nunito-Regular, Nunito" font-weight="400">ommunity</tspan></text>
    <text id="Science" transform="translate(254 67)" fill="#836c40" font-size="22" font-family="Nunito-Bold, Nunito" letter-spacing="0.015em" font-weight="700"><tspan x="0" y="0">S</tspan><tspan y="0" font-size="19" font-family="Nunito-Regular, Nunito" font-weight="400">cience</tspan></text>
    <text id="Museum" transform="translate(254 91)" fill="#836c40" font-size="21" font-family="Nunito-Bold, Nunito" letter-spacing="0.015em" font-weight="700"><tspan x="0" y="0">M</tspan><tspan y="0" font-size="18" font-family="Nunito-Regular, Nunito" font-weight="400">useum</tspan></text>
  </g>
</svg>
